<?xml version="1.0" standalone="no"?>
<!DOCTYPE svg PUBLIC "-//W3C//DTD SVG 20010904//EN"
 "http://www.w3.org/TR/2001/REC-SVG-20010904/DTD/svg10.dtd">
<svg version="1.0" xmlns="http://www.w3.org/2000/svg"
 width="300.000000pt" height="273.000000pt" viewBox="0 0 300.000000 273.000000"
 preserveAspectRatio="xMidYMid meet">
<metadata>
Created by potrace 1.10, written by Peter Selinger 2001-2011
</metadata>
<g transform="translate(0.000000,273.000000) scale(0.100000,-0.100000)"
fill="white" stroke="none">
<path d="M1260 1925 c-36 -8 -106 -35 -155 -59 -164 -81 -287 -221 -349 -395
-28 -80 -31 -96 -30 -221 0 -122 2 -143 28 -215 41 -120 80 -181 176 -276 68
-68 103 -94 170 -127 115 -57 184 -73 310 -73 125 0 194 16 305 71 187 92 323
263 371 467 24 101 15 263 -20 368 -71 208 -233 371 -441 441 -100 33 -263 42
-365 19z m306 -35 c303 -77 504 -334 504 -644 0 -107 -18 -191 -58 -273 -80
-166 -211 -285 -382 -348 -99 -36 -271 -46 -370 -21 -189 47 -359 182 -439
348 -55 114 -74 206 -68 333 7 168 67 303 188 425 166 168 402 236 625 180z"/>
<path d="M1269 1835 c-81 -20 -156 -56 -226 -109 -131 -99 -205 -231 -237
-423 -3 -18 -4 -33 -3 -33 1 0 27 9 57 21 58 22 171 30 224 16 23 -7 27 -12
21 -30 -3 -12 -11 -42 -17 -67 -14 -61 -20 -67 -86 -75 -62 -7 -162 -47 -162
-65 0 -6 19 1 43 14 41 25 142 46 179 38 15 -3 16 -11 11 -48 -8 -64 4 -74 93
-74 75 0 104 13 104 46 0 11 9 15 33 13 37 -4 52 4 68 32 10 20 10 20 -18 -1
-47 -34 -63 -20 -60 56 1 35 6 64 11 64 5 0 31 -16 58 -36 44 -31 52 -34 66
-21 35 29 45 31 31 6 -7 -13 -14 -33 -16 -44 -2 -11 -6 -34 -9 -50 -10 -54 28
-71 149 -66 30 1 40 6 49 27 7 14 23 32 37 39 19 11 22 14 9 15 -22 0 -22 -5
-2 104 8 49 13 95 10 102 -10 26 36 39 144 39 67 0 117 -5 138 -14 18 -7 36
-11 39 -7 14 14 -19 136 -58 215 -100 203 -311 332 -539 330 -47 0 -110 -7
-141 -14z m284 -34 c120 -31 169 -60 270 -159 65 -63 134 -189 144 -259 l5
-40 -128 2 c-147 3 -132 -12 -118 115 6 59 4 67 -16 85 -18 16 -36 20 -91 20
-88 0 -105 -16 -125 -111 -17 -81 -32 -96 -94 -92 l-45 3 3 80 c4 109 -7 120
-124 120 -108 0 -115 -6 -119 -111 -4 -117 -1 -114 -106 -114 -103 0 -91 1
-129 -10 -16 -5 -32 -5 -35 -1 -9 16 26 124 61 192 47 89 157 195 247 238 130
62 265 76 400 42z m-223 -280 c0 -5 -11 -70 -24 -143 -14 -73 -33 -184 -43
-245 l-18 -113 -83 0 c-81 0 -83 1 -77 21 4 12 24 116 44 231 31 174 35 212
25 226 -8 9 -14 20 -14 25 0 4 43 7 95 7 52 0 95 -4 95 -9z m370 -1 c0 -6 -18
-110 -40 -232 -22 -123 -40 -233 -40 -245 0 -22 -3 -23 -86 -23 -75 0 -85 2
-80 16 4 9 13 55 21 101 8 47 17 89 21 94 3 5 -35 9 -90 9 l-95 0 6 38 c3 20
8 39 10 42 2 2 44 3 92 1 l89 -3 6 29 c3 15 11 63 18 106 l12 77 78 0 c46 0
78 -4 78 -10z"/>
<path d="M2001 1250 c-1 -19 -4 -44 -7 -55 -2 -11 -6 -38 -8 -60 -4 -45 -42
-152 -62 -176 -8 -8 -14 -19 -14 -24 0 -4 -16 -28 -36 -51 -19 -24 -31 -44
-26 -44 30 0 134 190 152 276 6 29 9 79 7 111 -2 37 -4 45 -6 23z"/>
</g>
</svg>
